<mxfile host="Electron" modified="2023-11-20T02:38:07.971Z" agent="Mozilla/5.0 (Macintosh; Intel Mac OS X 10_15_7) AppleWebKit/537.36 (KHTML, like Gecko) draw.io/22.0.3 Chrome/114.0.5735.289 Electron/25.8.4 Safari/537.36" etag="va9PkKRFBWc5X0utTsYd" version="22.0.3" type="device">
  <diagram name="第 1 页" id="ItCtmsEPnJw0ktkY6HqF">
    <mxGraphModel dx="1026" dy="658" grid="1" gridSize="10" guides="1" tooltips="1" connect="1" arrows="1" fold="1" page="1" pageScale="1" pageWidth="827" pageHeight="1169" math="0" shadow="0">
      <root>
        <mxCell id="0" />
        <mxCell id="1" parent="0" />
        <mxCell id="ivrFrOjGUGSboI4QSA3r-1" value="0" style="whiteSpace=wrap;html=1;aspect=fixed;fontSize=24;" vertex="1" parent="1">
          <mxGeometry y="40" width="60" height="60" as="geometry" />
        </mxCell>
        <mxCell id="ivrFrOjGUGSboI4QSA3r-8" style="edgeStyle=orthogonalEdgeStyle;rounded=0;orthogonalLoop=1;jettySize=auto;html=1;entryX=1;entryY=0.5;entryDx=0;entryDy=0;strokeWidth=3;shape=flexArrow;" edge="1" parent="1" source="ivrFrOjGUGSboI4QSA3r-2" target="ivrFrOjGUGSboI4QSA3r-1">
          <mxGeometry relative="1" as="geometry" />
        </mxCell>
        <mxCell id="ivrFrOjGUGSboI4QSA3r-2" value="1" style="whiteSpace=wrap;html=1;aspect=fixed;fontSize=24;" vertex="1" parent="1">
          <mxGeometry x="120" y="40" width="60" height="60" as="geometry" />
        </mxCell>
        <mxCell id="ivrFrOjGUGSboI4QSA3r-3" value="2" style="whiteSpace=wrap;html=1;aspect=fixed;fontSize=24;" vertex="1" parent="1">
          <mxGeometry x="180" y="40" width="60" height="60" as="geometry" />
        </mxCell>
        <mxCell id="ivrFrOjGUGSboI4QSA3r-4" value="3" style="whiteSpace=wrap;html=1;aspect=fixed;fontSize=24;" vertex="1" parent="1">
          <mxGeometry x="240" y="40" width="60" height="60" as="geometry" />
        </mxCell>
        <mxCell id="ivrFrOjGUGSboI4QSA3r-5" value="4" style="whiteSpace=wrap;html=1;aspect=fixed;fontSize=24;" vertex="1" parent="1">
          <mxGeometry x="300" y="40" width="60" height="60" as="geometry" />
        </mxCell>
        <mxCell id="ivrFrOjGUGSboI4QSA3r-6" value="5" style="whiteSpace=wrap;html=1;aspect=fixed;fontSize=24;" vertex="1" parent="1">
          <mxGeometry x="360" y="40" width="60" height="60" as="geometry" />
        </mxCell>
        <mxCell id="ivrFrOjGUGSboI4QSA3r-9" style="edgeStyle=orthogonalEdgeStyle;rounded=0;orthogonalLoop=1;jettySize=auto;html=1;shape=flexArrow;strokeWidth=3;exitX=0;exitY=0.5;exitDx=0;exitDy=0;exitPerimeter=0;" edge="1" parent="1" source="ivrFrOjGUGSboI4QSA3r-7" target="ivrFrOjGUGSboI4QSA3r-6">
          <mxGeometry relative="1" as="geometry">
            <mxPoint x="500" y="70" as="sourcePoint" />
          </mxGeometry>
        </mxCell>
        <mxCell id="ivrFrOjGUGSboI4QSA3r-7" value="6" style="whiteSpace=wrap;html=1;aspect=fixed;fontSize=24;" vertex="1" parent="1">
          <mxGeometry x="480" y="40" width="60" height="60" as="geometry" />
        </mxCell>
        <mxCell id="ivrFrOjGUGSboI4QSA3r-10" value="&lt;font style=&quot;font-size: 24px;&quot;&gt;删除&lt;/font&gt;" style="text;html=1;strokeColor=none;fillColor=none;align=center;verticalAlign=middle;whiteSpace=wrap;rounded=0;" vertex="1" parent="1">
          <mxGeometry x="60" y="110" width="60" height="30" as="geometry" />
        </mxCell>
        <mxCell id="ivrFrOjGUGSboI4QSA3r-11" value="&lt;font style=&quot;font-size: 24px;&quot;&gt;添加&lt;/font&gt;" style="text;html=1;strokeColor=none;fillColor=none;align=center;verticalAlign=middle;whiteSpace=wrap;rounded=0;" vertex="1" parent="1">
          <mxGeometry x="420" y="110" width="60" height="30" as="geometry" />
        </mxCell>
      </root>
    </mxGraphModel>
  </diagram>
</mxfile>
